<svg xmlns="http://www.w3.org/2000/svg" xmlns:xlink="http://www.w3.org/1999/xlink" width="3840" zoomAndPan="magnify" viewBox="0 0 2880 2879.999992" height="3840" preserveAspectRatio="xMidYMid meet" version="1.0"><defs><g/></defs><g fill="#4a3d48" fill-opacity="1"><g transform="translate(1.000004, 1552.000142)"><g><path d="M 15.960938 -394.25 C 46.289062 -394.25 46.289062 -359.933594 46.289062 -340.382812 L 46.289062 -58.660156 C 46.289062 -39.105469 46.289062 -4.789062 15.960938 -4.789062 L 15.960938 0 L 116.519531 0 L 116.519531 -4.789062 C 86.191406 -4.789062 86.191406 -39.105469 86.191406 -58.660156 L 86.191406 -340.382812 C 86.191406 -359.933594 86.191406 -394.25 116.519531 -394.25 L 116.519531 -399.039062 L 15.960938 -399.039062 Z M 15.960938 -394.25 "/></g></g></g><g fill="#4a3d48" fill-opacity="1"><g transform="translate(133.468757, 1552.000142)"><g><path d="M 33.121094 -234.238281 C 38.308594 -234.238281 38.308594 -227.453125 38.308594 -216.679688 L 38.308594 -58.660156 C 38.308594 -39.105469 38.308594 -4.789062 7.980469 -4.789062 L 7.980469 0 L 108.539062 0 L 108.539062 -4.789062 C 78.210938 -4.789062 78.210938 -39.105469 78.210938 -58.660156 L 78.210938 -185.554688 C 92.578125 -203.511719 136.472656 -253.390625 188.347656 -253.390625 C 218.675781 -253.390625 218.675781 -219.074219 218.675781 -199.519531 L 218.675781 -27.132812 C 218.675781 -7.582031 220.269531 7.980469 235.832031 7.980469 C 261.769531 7.980469 288.90625 -27.132812 310.453125 -48.683594 L 307.261719 -53.472656 C 291.699219 -35.914062 277.332031 -27.535156 268.15625 -27.535156 C 262.167969 -27.535156 258.578125 -31.125 258.578125 -38.308594 L 258.578125 -191.9375 C 258.578125 -229.847656 253.390625 -268.15625 206.304688 -268.15625 C 160.015625 -268.15625 113.328125 -235.035156 78.210938 -198.324219 L 78.210938 -245.410156 C 78.210938 -261.769531 75.019531 -267.355469 68.234375 -267.355469 C 61.851562 -267.355469 55.867188 -258.578125 44.292969 -250.199219 C 33.519531 -242.21875 17.558594 -234.636719 7.980469 -234.636719 L 7.980469 -229.847656 C 22.746094 -229.847656 26.335938 -234.238281 33.121094 -234.238281 Z M 33.121094 -234.238281 "/></g></g></g><g fill="#4a3d48" fill-opacity="1"><g transform="translate(443.892596, 1552.000142)"><g><path d="M 33.121094 -234.238281 C 38.308594 -234.238281 38.308594 -227.453125 38.308594 -216.679688 L 38.308594 -58.660156 C 38.308594 -39.105469 38.308594 -4.789062 7.980469 -4.789062 L 7.980469 0 L 108.539062 0 L 108.539062 -4.789062 C 78.210938 -4.789062 78.210938 -39.105469 78.210938 -58.660156 L 78.210938 -185.554688 C 92.578125 -203.511719 136.472656 -253.390625 188.347656 -253.390625 C 218.675781 -253.390625 218.675781 -219.074219 218.675781 -199.519531 L 218.675781 -27.132812 C 218.675781 -7.582031 220.269531 7.980469 235.832031 7.980469 C 261.769531 7.980469 288.90625 -27.132812 310.453125 -48.683594 L 307.261719 -53.472656 C 291.699219 -35.914062 277.332031 -27.535156 268.15625 -27.535156 C 262.167969 -27.535156 258.578125 -31.125 258.578125 -38.308594 L 258.578125 -191.9375 C 258.578125 -229.847656 253.390625 -268.15625 206.304688 -268.15625 C 160.015625 -268.15625 113.328125 -235.035156 78.210938 -198.324219 L 78.210938 -245.410156 C 78.210938 -261.769531 75.019531 -267.355469 68.234375 -267.355469 C 61.851562 -267.355469 55.867188 -258.578125 44.292969 -250.199219 C 33.519531 -242.21875 17.558594 -234.636719 7.980469 -234.636719 L 7.980469 -229.847656 C 22.746094 -229.847656 26.335938 -234.238281 33.121094 -234.238281 Z M 33.121094 -234.238281 "/></g></g></g><g fill="#4a3d48" fill-opacity="1"><g transform="translate(754.316434, 1552.000142)"><g><path d="M 23.941406 -88.585938 C 23.941406 -19.554688 67.835938 7.980469 122.105469 7.980469 C 183.957031 7.980469 236.628906 -39.902344 252.59375 -87.789062 L 247.003906 -89.386719 C 238.226562 -59.855469 185.15625 -7.980469 140.859375 -7.980469 C 82.601562 -7.980469 63.046875 -56.664062 63.046875 -110.136719 C 63.046875 -185.15625 112.128906 -260.175781 180.367188 -260.175781 C 207.5 -260.175781 219.074219 -242.617188 219.074219 -218.675781 C 219.074219 -169.59375 165.601562 -86.589844 106.144531 -86.589844 C 94.972656 -86.589844 87.789062 -87.789062 82.203125 -90.980469 L 79.808594 -85.792969 C 88.984375 -81.003906 95.769531 -79.808594 111.332031 -79.808594 C 159.21875 -79.808594 252.992188 -125.699219 252.992188 -208.699219 C 252.992188 -248.601562 217.078125 -265.363281 180.367188 -265.363281 C 88.984375 -265.363281 23.941406 -171.585938 23.941406 -88.585938 Z M 23.941406 -88.585938 "/></g></g></g><g fill="#4a3d48" fill-opacity="1"><g transform="translate(1031.223669, 1552.000142)"><g><path d="M 108.539062 0 L 108.539062 -4.789062 C 78.210938 -4.789062 78.210938 -39.105469 78.210938 -58.660156 L 78.210938 -126.894531 C 78.210938 -126.894531 91.777344 -233.039062 181.960938 -233.039062 C 210.292969 -233.039062 223.863281 -213.488281 223.863281 -197.523438 L 228.648438 -197.523438 L 228.648438 -258.179688 C 228.648438 -258.179688 217.875 -265.363281 195.53125 -265.363281 C 146.046875 -265.363281 97.367188 -214.683594 78.210938 -150.4375 L 78.210938 -243.414062 C 78.210938 -259.773438 75.019531 -265.363281 68.234375 -265.363281 C 61.851562 -265.363281 55.867188 -256.582031 44.292969 -248.203125 C 33.519531 -240.222656 17.558594 -232.640625 7.980469 -232.640625 L 7.980469 -227.851562 C 22.746094 -227.851562 26.335938 -232.242188 33.121094 -232.242188 C 38.308594 -232.242188 38.308594 -225.457031 38.308594 -214.683594 L 38.308594 -58.660156 C 38.308594 -39.105469 38.308594 -4.789062 7.980469 -4.789062 L 7.980469 0 Z M 108.539062 0 "/></g></g></g><g fill="#4a3d48" fill-opacity="1"><g transform="translate(1417.458061, 1552.000142)"><g><path d="M 15.960938 0 L 116.519531 0 L 116.519531 -4.789062 C 86.191406 -4.789062 86.191406 -39.105469 86.191406 -58.660156 L 86.191406 -184.753906 L 222.664062 -184.753906 C 302.074219 -184.753906 339.582031 -238.625 339.582031 -294.09375 C 339.582031 -347.164062 299.679688 -399.039062 223.460938 -399.039062 L 15.960938 -399.039062 L 15.960938 -394.25 C 46.289062 -394.25 46.289062 -359.933594 46.289062 -340.382812 L 46.289062 -58.660156 C 46.289062 -39.105469 46.289062 -4.789062 15.960938 -4.789062 Z M 86.191406 -391.058594 L 193.535156 -391.058594 C 264.5625 -391.058594 300.078125 -343.175781 300.078125 -292.894531 C 300.078125 -240.621094 264.5625 -193.136719 194.730469 -193.136719 L 86.191406 -193.136719 Z M 86.191406 -391.058594 "/></g></g></g><g fill="#4a3d48" fill-opacity="1"><g transform="translate(1780.948797, 1552.000142)"><g><path d="M 23.941406 -88.585938 C 23.941406 -19.554688 67.835938 7.980469 122.105469 7.980469 C 183.957031 7.980469 236.628906 -39.902344 252.59375 -87.789062 L 247.003906 -89.386719 C 238.226562 -59.855469 185.15625 -7.980469 140.859375 -7.980469 C 82.601562 -7.980469 63.046875 -56.664062 63.046875 -110.136719 C 63.046875 -185.15625 112.128906 -260.175781 180.367188 -260.175781 C 207.5 -260.175781 219.074219 -242.617188 219.074219 -218.675781 C 219.074219 -169.59375 165.601562 -86.589844 106.144531 -86.589844 C 94.972656 -86.589844 87.789062 -87.789062 82.203125 -90.980469 L 79.808594 -85.792969 C 88.984375 -81.003906 95.769531 -79.808594 111.332031 -79.808594 C 159.21875 -79.808594 252.992188 -125.699219 252.992188 -208.699219 C 252.992188 -248.601562 217.078125 -265.363281 180.367188 -265.363281 C 88.984375 -265.363281 23.941406 -171.585938 23.941406 -88.585938 Z M 23.941406 -88.585938 "/></g></g></g><g fill="#4a3d48" fill-opacity="1"><g transform="translate(2057.856032, 1552.000142)"><g><path d="M 15.960938 -63.046875 C 15.960938 5.984375 59.855469 8.378906 78.210938 8.378906 C 135.671875 7.980469 176.773438 -66.640625 197.523438 -115.722656 L 197.523438 -26.734375 C 197.523438 -7.183594 199.121094 8.378906 214.683594 8.378906 C 240.621094 8.378906 267.757812 -26.734375 289.304688 -48.285156 L 286.113281 -53.074219 C 270.550781 -35.515625 256.183594 -27.132812 247.003906 -27.132812 C 241.019531 -27.132812 237.429688 -30.726562 237.429688 -37.910156 L 237.429688 -208.699219 C 237.429688 -228.25 237.429688 -252.59375 267.757812 -252.59375 L 267.757812 -257.378906 L 190.34375 -257.378906 C 98.960938 -257.378906 15.960938 -146.046875 15.960938 -63.046875 Z M 49.878906 -66.242188 C 49.878906 -164.003906 122.105469 -249 183.558594 -249 L 197.523438 -249 L 197.523438 -135.273438 C 180.765625 -93.773438 140.460938 -9.976562 88.1875 -9.976562 C 66.640625 -9.976562 49.878906 -38.308594 49.878906 -66.242188 Z M 49.878906 -66.242188 "/></g></g></g><g fill="#4a3d48" fill-opacity="1"><g transform="translate(2347.132411, 1552.000142)"><g><path d="M 15.960938 -88.585938 C 15.960938 -19.554688 59.855469 7.980469 114.125 7.980469 C 175.976562 7.980469 226.65625 -44.292969 238.625 -89.785156 L 233.039062 -91.378906 C 224.261719 -61.851562 177.171875 -11.972656 132.878906 -11.972656 C 74.621094 -11.972656 55.066406 -60.652344 55.066406 -114.125 C 55.066406 -207.101562 104.949219 -254.1875 157.222656 -253.789062 C 191.9375 -253.390625 227.453125 -230.644531 227.453125 -179.566406 L 233.039062 -179.566406 L 233.039062 -250.199219 C 214.285156 -259.773438 201.515625 -265.363281 172.386719 -265.363281 C 81.003906 -265.363281 15.960938 -171.585938 15.960938 -88.585938 Z M 15.960938 -88.585938 "/></g></g></g><g fill="#4a3d48" fill-opacity="1"><g transform="translate(2601.695895, 1552.000142)"><g><path d="M 23.941406 -88.585938 C 23.941406 -19.554688 67.835938 7.980469 122.105469 7.980469 C 183.957031 7.980469 236.628906 -39.902344 252.59375 -87.789062 L 247.003906 -89.386719 C 238.226562 -59.855469 185.15625 -7.980469 140.859375 -7.980469 C 82.601562 -7.980469 63.046875 -56.664062 63.046875 -110.136719 C 63.046875 -185.15625 112.128906 -260.175781 180.367188 -260.175781 C 207.5 -260.175781 219.074219 -242.617188 219.074219 -218.675781 C 219.074219 -169.59375 165.601562 -86.589844 106.144531 -86.589844 C 94.972656 -86.589844 87.789062 -87.789062 82.203125 -90.980469 L 79.808594 -85.792969 C 88.984375 -81.003906 95.769531 -79.808594 111.332031 -79.808594 C 159.21875 -79.808594 252.992188 -125.699219 252.992188 -208.699219 C 252.992188 -248.601562 217.078125 -265.363281 180.367188 -265.363281 C 88.984375 -265.363281 23.941406 -171.585938 23.941406 -88.585938 Z M 23.941406 -88.585938 "/></g></g></g></svg>